<svg xmlns="http://www.w3.org/2000/svg" xmlns:xlink="http://www.w3.org/1999/xlink" width="450" zoomAndPan="magnify" viewBox="0 0 337.5 149.999998" height="200" preserveAspectRatio="xMidYMid meet" version="1.0"><defs><g/><clipPath id="2eb0aca99e"><path d="M 40 0.109375 L 137 0.109375 L 137 149.886719 L 40 149.886719 Z M 40 0.109375 " clip-rule="nonzero"/></clipPath></defs><g clip-path="url(#2eb0aca99e)"><g fill="#ac5859" fill-opacity="1"><g transform="translate(35.478445, 90.790384)"><g><path d="M 33.492188 12.417969 C 31.234375 12.417969 27.847656 11.917969 26.46875 11.164062 C 26.46875 7.402344 29.476562 -7.023438 30.230469 -11.539062 C 32.113281 -20.570312 35.121094 -30.730469 38.132812 -39.761719 L 43.023438 -52.808594 C 47.789062 -64.976562 59.832031 -86.550781 75.136719 -86.550781 C 85.671875 -86.550781 91.695312 -74.757812 91.695312 -60.960938 C 91.695312 -44.402344 84.667969 -25.589844 74.382812 -12.417969 C 65.601562 -0.5 50.175781 12.417969 33.492188 12.417969 Z M 26.46875 -13.796875 C 26.46875 -27.21875 27.09375 -41.015625 27.09375 -55.441406 C 27.09375 -63.847656 26.84375 -77.644531 19.695312 -77.644531 C 15.679688 -77.644531 12.042969 -69.492188 10.660156 -65.980469 C 7.527344 -57.953125 5.394531 -49.171875 5.394531 -40.015625 C 5.394531 -37.882812 4.890625 -37.128906 5.144531 -35.5 C 5.769531 -30.355469 5.894531 -27.21875 7.777344 -22.203125 C 9.53125 -17.9375 11.917969 -16.558594 13.421875 -16.558594 C 14.800781 -16.558594 15.554688 -17.6875 14.800781 -18.941406 C 14.175781 -20.320312 11.664062 -19.820312 9.910156 -28.347656 C 9.03125 -33.367188 8.65625 -39.636719 9.40625 -45.28125 C 10.285156 -49.671875 11.414062 -56.195312 12.917969 -60.335938 C 14.425781 -63.972656 16.933594 -70.746094 19.695312 -72.5 C 22.203125 -66.984375 20.824219 -48.667969 20.824219 -42.019531 C 20.824219 -33.992188 19.566406 -20.824219 19.695312 -13.046875 C 19.695312 -10.789062 19.441406 -10.035156 19.316406 -8.277344 C 19.066406 -6.648438 19.316406 -4.765625 19.191406 -3.136719 C 19.191406 -1.128906 18.816406 -0.878906 18.816406 1.253906 C 18.691406 6.019531 18.941406 7.527344 18.3125 7.527344 C 17.9375 7.527344 17.308594 6.898438 16.179688 6.273438 C 15.679688 5.894531 15.050781 5.769531 14.675781 5.769531 C 12.792969 5.769531 12.292969 8.53125 15.304688 10.660156 C 16.304688 11.414062 17.433594 12.042969 18.3125 12.792969 C 18.3125 16.179688 18.0625 18.1875 18.0625 21.953125 C 18.0625 25.210938 17.6875 27.722656 17.6875 31.359375 C 17.6875 37.628906 16.304688 59.957031 17.6875 65.101562 C 18.4375 65.476562 19.066406 65.601562 19.695312 65.601562 C 22.828125 65.601562 22.078125 59.582031 22.703125 53.5625 C 23.082031 49.921875 23.207031 39.511719 23.707031 36.375 L 25.464844 15.929688 C 27.722656 16.054688 29.855469 17.183594 33.867188 17.183594 C 58.953125 17.183594 82.660156 -8.90625 90.816406 -30.984375 C 96.210938 -45.15625 100.851562 -66.984375 91.695312 -81.28125 C 87.804688 -87.304688 82.160156 -90.941406 75.386719 -90.941406 C 66.480469 -90.941406 60.835938 -86.175781 54.816406 -80.152344 C 42.019531 -67.359375 32.363281 -38.257812 28.097656 -20.070312 L 26.59375 -14.046875 C 26.59375 -13.921875 26.46875 -13.921875 26.46875 -13.796875 Z M 26.46875 -13.796875 "/></g></g></g></g><g fill="#ac5859" fill-opacity="1"><g transform="translate(132.690934, 90.790384)"><g><path d="M 6.273438 -2.886719 C 3.511719 -8.65625 9.28125 -19.945312 10.160156 -23.582031 C 14.550781 -20.695312 11.414062 -4.265625 6.273438 -2.886719 Z M 0 -7.148438 C 0 -0.628906 2.757812 2.632812 6.019531 2.632812 C 9.785156 2.632812 14.425781 -1.757812 16.304688 -10.410156 C 19.066406 -23.332031 13.046875 -25.464844 12.417969 -27.847656 C 13.046875 -28.851562 14.175781 -29.601562 14.550781 -30.480469 C 14.925781 -31.484375 14.175781 -33.492188 12.542969 -33.492188 C 6.398438 -33.492188 0 -12.792969 0 -7.148438 Z M 0 -7.148438 "/></g></g></g><g fill="#ac5859" fill-opacity="1"><g transform="translate(154.767582, 90.790384)"><g><path d="M 0 -9.53125 L 0 1.128906 C 0 3.511719 0.25 3.886719 0.375 5.769531 C 0.628906 8.90625 -0.5 13.171875 2.886719 13.171875 C 5.394531 13.171875 6.144531 6.019531 8.027344 0.5 L 13.546875 -11.539062 C 14.925781 -5.769531 15.804688 0 17.6875 5.519531 C 18.691406 8.53125 20.070312 14.300781 23.207031 15.804688 C 23.582031 15.929688 23.957031 16.054688 24.210938 16.054688 C 25.210938 16.054688 25.839844 15.175781 26.46875 14.425781 C 26.089844 12.792969 24.960938 11.664062 23.707031 8.53125 C 21.824219 3.511719 19.191406 -7.652344 18.691406 -12.917969 C 17.9375 -20.070312 17.8125 -19.945312 20.070312 -23.707031 C 20.695312 -24.710938 21.324219 -25.589844 21.953125 -26.59375 C 25.589844 -32.738281 30.605469 -36.878906 25.210938 -36.878906 C 21.074219 -36.878906 5.644531 -4.515625 4.890625 -3.761719 C 4.890625 -21.574219 7.148438 -46.285156 10.535156 -64.851562 C 11.539062 -70.496094 13.921875 -74.886719 9.03125 -74.886719 C 4.640625 -74.886719 2.007812 -47.917969 1.628906 -45.03125 C 0.628906 -33.867188 0 -21.574219 0 -9.53125 Z M 0 -9.53125 "/></g></g></g><g fill="#ac5859" fill-opacity="1"><g transform="translate(183.241437, 90.790384)"><g><path d="M 5.769531 -22.703125 C 6.648438 -25.839844 10.789062 -30.730469 14.175781 -31.359375 C 13.796875 -27.34375 8.90625 -24.335938 5.769531 -22.703125 Z M 0.125 -19.695312 C 0.125 -16.179688 0 -13.046875 3.011719 -10.035156 C 5.144531 -7.902344 7.652344 -7.023438 10.285156 -7.023438 C 17.9375 -7.023438 26.59375 -14.675781 31.234375 -19.316406 C 32.363281 -20.695312 32.363281 -20.824219 31.984375 -22.703125 C 28.222656 -22.703125 30.230469 -22.203125 25.085938 -18.1875 C 24.210938 -17.5625 23.832031 -17.058594 22.828125 -16.304688 C 20.320312 -14.425781 15.050781 -10.789062 10.660156 -10.789062 C 9.15625 -10.789062 7.652344 -11.289062 6.523438 -12.417969 C 4.390625 -14.550781 4.640625 -16.558594 4.640625 -19.191406 C 8.53125 -19.441406 13.046875 -23.082031 15.050781 -25.339844 C 18.941406 -30.230469 18.941406 -35.246094 13.421875 -35.246094 C 7.402344 -35.246094 0.125 -25.964844 0.125 -19.695312 Z M 22.578125 -50.800781 C 22.578125 -47.664062 18.4375 -42.523438 16.433594 -40.140625 C 15.804688 -39.511719 14.675781 -37.628906 13.171875 -37.628906 C 12.667969 -37.628906 12.167969 -37.757812 11.664062 -38.257812 C 9.910156 -39.886719 11.917969 -42.648438 12.792969 -43.777344 C 15.175781 -47.289062 16.808594 -53.183594 20.570312 -53.183594 C 21.574219 -53.183594 22.578125 -51.804688 22.578125 -50.800781 Z M 22.578125 -50.800781 "/></g></g></g><g fill="#ac5859" fill-opacity="1"><g transform="translate(210.460928, 90.790384)"><g><path d="M 4.390625 -9.15625 C 4.390625 -16.933594 7.023438 -25.339844 11.414062 -30.730469 C 12.667969 -32.488281 14.046875 -34.117188 16.933594 -34.496094 C 16.808594 -32.613281 7.652344 -8.027344 4.890625 -8.027344 C 4.515625 -8.027344 4.390625 -8.277344 4.390625 -9.15625 Z M 18.691406 -37.882812 C 16.808594 -37.882812 17.5625 -38.257812 16.179688 -38.257812 C 4.765625 -38.257812 -6.144531 -3.636719 4.390625 -3.636719 C 9.15625 -3.636719 11.539062 -9.910156 13.296875 -13.796875 L 17.6875 -24.460938 C 18.0625 -25.589844 17.9375 -25.339844 18.691406 -26.089844 C 18.691406 -21.074219 16.304688 21.074219 21.953125 21.074219 C 26.46875 21.074219 23.332031 18.3125 23.207031 10.160156 C 22.953125 -10.914062 21.324219 -32.988281 27.46875 -53.433594 C 28.222656 -56.445312 32.863281 -68.988281 28.222656 -68.988281 C 28.097656 -68.988281 27.847656 -68.863281 27.597656 -68.863281 C 24.585938 -68.238281 23.207031 -59.332031 22.578125 -56.695312 L 19.945312 -42.523438 C 19.441406 -40.890625 18.691406 -39.636719 18.691406 -37.882812 Z M 18.691406 -37.882812 "/></g></g></g><g fill="#ac5859" fill-opacity="1"><g transform="translate(238.558485, 90.790384)"><g><path d="M 5.769531 -22.703125 C 6.648438 -25.839844 10.789062 -30.730469 14.175781 -31.359375 C 13.796875 -27.34375 8.90625 -24.335938 5.769531 -22.703125 Z M 0.125 -19.695312 C 0.125 -16.179688 0 -13.046875 3.011719 -10.035156 C 5.144531 -7.902344 7.652344 -7.023438 10.285156 -7.023438 C 17.9375 -7.023438 26.59375 -14.675781 31.234375 -19.316406 C 32.363281 -20.695312 32.363281 -20.824219 31.984375 -22.703125 C 28.222656 -22.703125 30.230469 -22.203125 25.085938 -18.1875 C 24.210938 -17.5625 23.832031 -17.058594 22.828125 -16.304688 C 20.320312 -14.425781 15.050781 -10.789062 10.660156 -10.789062 C 9.15625 -10.789062 7.652344 -11.289062 6.523438 -12.417969 C 4.390625 -14.550781 4.640625 -16.558594 4.640625 -19.191406 C 8.53125 -19.441406 13.046875 -23.082031 15.050781 -25.339844 C 18.941406 -30.230469 18.941406 -35.246094 13.421875 -35.246094 C 7.402344 -35.246094 0.125 -25.964844 0.125 -19.695312 Z M 0.125 -19.695312 "/></g></g></g><g fill="#ac5859" fill-opacity="1"><g transform="translate(265.777976, 90.790384)"><g><path d="M 1.882812 -22.953125 C 1.882812 -9.910156 5.769531 -18.3125 -0.753906 -10.160156 C -3.011719 -7.273438 -10.285156 0 -10.285156 4.765625 C -10.285156 5.519531 -10.160156 5.144531 -9.910156 6.019531 C -9.40625 6.144531 -8.90625 6.273438 -8.65625 6.273438 C -7.023438 6.273438 -7.273438 4.265625 -2.382812 -2.257812 C -1.003906 -4.265625 2.632812 -8.90625 4.640625 -10.160156 C 7.777344 -4.140625 11.414062 -2.007812 15.175781 -2.007812 C 19.945312 -2.007812 25.085938 -5.394531 29.980469 -9.40625 C 31.859375 -10.914062 40.515625 -19.066406 40.515625 -21.324219 C 40.515625 -22.203125 40.140625 -22.703125 39.636719 -22.703125 C 38.886719 -22.703125 37.628906 -21.699219 36.5 -20.195312 L 29.726562 -13.421875 C 26.46875 -10.660156 20.070312 -5.769531 15.679688 -5.769531 C 10.914062 -5.769531 8.90625 -11.664062 7.902344 -13.921875 C 9.03125 -14.675781 9.53125 -15.429688 10.660156 -16.304688 C 15.804688 -20.445312 22.203125 -26.84375 28.222656 -30.984375 C 29.726562 -31.984375 30.984375 -32.363281 30.984375 -33.867188 C 30.984375 -34.746094 30.105469 -35.246094 29.351562 -35.246094 C 26.71875 -35.246094 19.820312 -28.976562 17.6875 -27.21875 C 16.683594 -26.46875 16.054688 -25.839844 15.050781 -25.210938 C 13.046875 -23.457031 8.53125 -18.566406 7.023438 -18.3125 C 7.023438 -20.824219 6.898438 -23.957031 7.023438 -26.339844 C 7.273438 -29.351562 7.902344 -30.480469 7.902344 -34.117188 C 7.902344 -35.246094 7.023438 -35.75 6.019531 -35.75 C 2.382812 -35.75 1.882812 -25.464844 1.882812 -22.953125 Z M 1.882812 -22.953125 "/></g></g></g></svg>